<svg width="24" height="24" viewBox="0 0 24 24" fill="none" xmlns="http://www.w3.org/2000/svg">
<path d="M9.12124 17.9396C7.45034 17.9396 6.09097 19.2989 6.09097 20.9698C6.09097 22.6407 7.45034 24.0001 9.12124 24.0001C10.7921 24.0001 12.1515 22.6407 12.1515 20.9698C12.1515 19.2989 10.7921 17.9396 9.12124 17.9396ZM9.12124 22.1819C8.45276 22.1819 7.90915 21.6383 7.90915 20.9698C7.90915 20.3014 8.45276 19.7578 9.12124 19.7578C9.7894 19.7578 10.3333 20.3014 10.3333 20.9698C10.3333 21.6383 9.78972 22.1819 9.12124 22.1819Z" fill="#0F2438" stroke="white" stroke-width="0.3"/>
<path d="M18.091 17.9396C16.4201 17.9396 15.0607 19.2989 15.0607 20.9698C15.0607 22.6407 16.4201 24.0001 18.091 24.0001C19.7619 24.0001 21.1213 22.6407 21.1213 20.9698C21.1213 19.2989 19.7619 17.9396 18.091 17.9396ZM18.091 22.1819C17.4225 22.1819 16.8789 21.6383 16.8789 20.9698C16.8789 20.3014 17.4225 19.7578 18.091 19.7578C18.7595 19.7578 19.3031 20.3014 19.3031 20.9698C19.3031 21.6383 18.7595 22.1819 18.091 22.1819Z" fill="#0F2438" stroke="white" stroke-width="0.3"/>
<path d="M23.3478 5.91914C23.1751 5.70216 22.9133 5.57583 22.6363 5.57583H6.7184L5.89204 1.39952C5.81962 1.03375 5.53115 0.749224 5.16417 0.681958L1.52786 0.0153045C1.03305 -0.0759139 0.560312 0.251694 0.469703 0.745614C0.379094 1.23953 0.706046 1.71316 1.20001 1.80377L4.22845 2.3589L6.89629 15.8432C6.98052 16.269 7.35416 16.5759 7.78808 16.5759H20.5152C20.9385 16.5759 21.3055 16.2841 21.4009 15.8711L23.5221 6.68943C23.5845 6.41944 23.5203 6.1358 23.3478 5.91914ZM19.7921 14.7578H8.5347L7.07807 7.39429H21.493L19.7921 14.7578Z" fill="#0F2438" stroke="white" stroke-width="0.3"/>
</svg>
